<?xml version="1.0" encoding="utf-8"?>
<!-- Generator: Adobe Illustrator 24.0.0, SVG Export Plug-In . SVG Version: 6.00 Build 0)  -->
<svg version="1.1" id="Layer_1" xmlns="http://www.w3.org/2000/svg" xmlns:xlink="http://www.w3.org/1999/xlink" x="0px" y="0px"
	 viewBox="0 0 300 200" style="enable-background:new 0 0 300 200;" xml:space="preserve">
<style type="text/css">
	.st0{opacity:0.6;fill:url(#SVGID_1_);}
	.st1{fill:#FFFFFF;}
	.st2{fill:#DE8758;}
	.st3{fill-rule:evenodd;clip-rule:evenodd;fill:#FFFFFF;}
	.st4{opacity:0.2;}
	.st5{fill:url(#SVGID_2_);}
	.st6{fill-rule:evenodd;clip-rule:evenodd;fill:url(#SVGID_3_);}
</style>
<radialGradient id="SVGID_1_" cx="216.5936" cy="32079.7949" r="93.815" gradientTransform="matrix(0.2628 0 0 0.0603 -20.5575 -1792.5797)" gradientUnits="userSpaceOnUse">
	<stop  offset="0" style="stop-color:#7C797A"/>
	<stop  offset="0.2959" style="stop-color:#B3B2B2"/>
	<stop  offset="1" style="stop-color:#FFFFFF"/>
</radialGradient>
<path class="st0" d="M70.7,141.55c0,3.83-15.37,6.93-34.34,6.93s-34.34-3.1-34.34-6.93c0-3.83,15.37-6.93,34.34-6.93
	S70.7,137.72,70.7,141.55z"/>
<g>
	<g>
		<g>
			<path class="st1" d="M80.86,87.6c0.7-1.79-2-1.91-3.36-1.92v0l0,0c-0.16,1.24,1.29,2,1.29,2c-1.85-0.63-2.03-2.34-2.03-2.34
				s-5.22-2.17-7.99-3.27c-0.97-0.38-1.54-0.95-1.99-1.95c-0.85-1.87-1.69-3.89-3.05-5.33c-3.38-3.59-7.69-5.29-12.58-5.23
				c-0.69,0.01,1.95-0.39,1.61-1.02c-0.82-1.53-2.03-10.31-3.67-9.83c-0.53,0.16-1.2,7.6-1.69,7.85c-2.62,1.33-3.06-10.34-5.66-8.97
				c-0.45,0.24-3.37,12.63-3.76,12.96c-1.76,1.46-2.56,2.38-3.27,3c-6.78,7.37-15.25,38.54-1.97,53.03
				c4.13-6.24,3.26-10.77,3.43-11.11c1.82-3.59,3.92-6.99,6.58-10.01c4.97-5.65,11.06-8.74,18.59-8.65
				c2.88,0.04,5.76-0.09,8.64-0.04c4.24,0.07,7.21-2.2,9.31-5.6c0.39-0.63,0.67-1.18,0.85-1.65c0,0,0,0,0,0
				C80.12,89.52,80.47,88.6,80.86,87.6z"/>
			<path class="st2" d="M80.76,87.57c0.03-0.09,0.06-0.19,0.08-0.27c0.02-0.09,0.03-0.18,0.02-0.26c0-0.09-0.02-0.17-0.05-0.25
				c-0.03-0.08-0.07-0.16-0.13-0.22c-0.22-0.27-0.58-0.42-0.94-0.52c-0.72-0.19-1.49-0.22-2.25-0.23l0.14-0.14v0l0,0.02
				c0,0.1-0.02,0.19,0,0.29c0.01,0.05,0.01,0.1,0.02,0.14l0.04,0.14c0.03,0.09,0.06,0.18,0.12,0.27c0.04,0.09,0.1,0.17,0.16,0.25
				c0.12,0.16,0.26,0.3,0.42,0.42c0.08,0.06,0.16,0.12,0.24,0.18c0.08,0.06,0.17,0.11,0.25,0.15l-0.12,0.3l-0.2-0.07
				c-0.06-0.03-0.13-0.05-0.2-0.08c-0.13-0.07-0.26-0.12-0.37-0.2c-0.12-0.07-0.24-0.16-0.35-0.25c-0.06-0.04-0.11-0.1-0.16-0.14
				c-0.05-0.05-0.11-0.1-0.15-0.15c-0.1-0.11-0.19-0.22-0.27-0.34c-0.08-0.12-0.15-0.25-0.22-0.38c-0.06-0.13-0.12-0.27-0.17-0.4
				c-0.02-0.07-0.05-0.14-0.06-0.21c-0.02-0.07-0.03-0.14-0.05-0.23l0.13,0.18c-1.58-0.62-3.18-1.21-4.76-1.82l-2.39-0.9l-0.6-0.22
				l-0.3-0.11l-0.31-0.13c-0.43-0.19-0.87-0.47-1.21-0.82c-0.35-0.36-0.61-0.78-0.81-1.2l-0.57-1.16c-0.38-0.77-0.77-1.52-1.21-2.22
				c-0.44-0.7-0.94-1.32-1.51-1.86l-0.47-0.44l-0.46-0.39c-0.15-0.13-0.31-0.25-0.47-0.38c-0.16-0.12-0.32-0.25-0.49-0.37
				c-0.66-0.47-1.36-0.89-2.07-1.26c-0.72-0.36-1.47-0.66-2.23-0.91c-0.77-0.24-1.55-0.41-2.34-0.55c-0.79-0.12-1.59-0.2-2.4-0.22
				c-0.2-0.01-0.4,0-0.6,0l-0.3,0h-0.12c-0.04,0-0.07,0-0.14-0.01c-0.07-0.02-0.07,0.01-0.32-0.09c-0.85-0.05-0.4-2.39-0.16-1.82
				c0.14-0.1,0.14-0.09,0.19-0.11l0.07-0.03l0.08-0.03l0.11-0.04c0.23-0.07,0.41-0.12,0.59-0.19c0.17-0.06,0.34-0.13,0.44-0.18
				c0.05-0.02,0.09-0.05,0.05-0.03c-0.02,0.02-0.06,0.05-0.13,0.17c-0.07,0.11-0.13,0.36-0.09,0.58c0.01,0.05,0.02,0.1,0.04,0.14
				l0.02,0.05c0.02,0.05,0,0,0-0.01l-0.04-0.07l-0.03-0.07l-0.04-0.1l-0.09-0.22l-0.06-0.18c-0.16-0.47-0.27-0.89-0.39-1.33
				c-0.44-1.71-0.81-3.39-1.3-4.99c-0.12-0.4-0.25-0.79-0.39-1.16c-0.14-0.36-0.3-0.72-0.45-0.97c-0.04-0.04-0.08-0.12-0.1-0.14
				c-0.01-0.01-0.03-0.03-0.03-0.04c0,0.01,0,0.01,0.01,0.01c0,0,0.05,0.04,0.08,0.04c0.01,0,0.04,0.02,0.07,0.03
				c0.03,0.01,0.07,0.02,0.1,0.02c0.06,0,0.15,0.01,0.22-0.01l0.03-0.01c0.35-0.13,0.09-0.03,0.16-0.06c-0.03,0.01,0,0,0.09-0.05
				c0.07-0.04,0.13-0.09,0.18-0.15c0.11-0.11,0.11-0.14,0.13-0.16c0.02-0.04,0.02-0.04,0.01-0.02l-0.03,0.08
				c-0.02,0.07-0.05,0.16-0.07,0.25c-0.05,0.18-0.09,0.38-0.13,0.58c-0.16,0.81-0.29,1.67-0.42,2.52c-0.13,0.86-0.26,1.72-0.43,2.6
				c-0.04,0.22-0.09,0.45-0.14,0.68c-0.03,0.12-0.06,0.24-0.1,0.37c-0.02,0.07-0.04,0.14-0.07,0.21c-0.03,0.08-0.06,0.16-0.12,0.29
				c-0.02,0.04-0.03,0.06-0.06,0.1c-0.03,0.05-0.05,0.09-0.09,0.14c-0.03,0.04-0.06,0.07-0.09,0.1c-0.03,0.04-0.05,0.05-0.12,0.12
				c-0.06,0.05-0.13,0.1-0.2,0.14l-0.1,0.05l-0.07,0.03l-0.05,0.02l-0.1,0.04c-0.07,0.02-0.14,0.04-0.21,0.06
				c-0.06,0.01-0.12,0.02-0.19,0.03c-0.12,0.02-0.26,0.01-0.39,0c-0.26-0.03-0.51-0.11-0.71-0.22c-0.2-0.11-0.36-0.24-0.49-0.36
				c-0.26-0.25-0.44-0.5-0.58-0.74c-0.15-0.24-0.26-0.47-0.36-0.69c-0.2-0.45-0.36-0.89-0.51-1.32c-0.29-0.86-0.52-1.71-0.76-2.53
				c-0.24-0.82-0.48-1.64-0.77-2.36c-0.14-0.35-0.31-0.7-0.47-0.91c-0.07-0.1-0.14-0.15-0.13-0.15c0.01,0.02,0.16,0.03,0.18,0.01
				c0.01-0.01,0,0,0,0l0,0c0.32-0.21,0.08-0.05,0.15-0.1c-0.05,0.04,0.08-0.06,0.13-0.12c0.03-0.03,0.06-0.09,0.07-0.1l0-0.01
				c0,0,0.01-0.01,0.01-0.02c-0.01,0.01-0.05,0.11-0.08,0.19c-0.06,0.17-0.13,0.37-0.19,0.56c-0.13,0.4-0.25,0.8-0.37,1.21
				c-0.48,1.65-0.93,3.32-1.38,4.99l-0.69,2.51c-0.24,0.84-0.46,1.67-0.74,2.54L39,70.52l-0.07,0.19c-0.03,0.08-0.05,0.13-0.13,0.28
				c-0.03,0.04-0.02,0.05-0.13,0.18c-0.03,0.04-0.12,0.12-0.1,0.11l-0.02,0.01l-0.06,0.05l-0.12,0.1l-0.25,0.21
				c-0.32,0.28-0.67,0.55-0.96,0.83c-0.61,0.54-1.2,1.13-1.88,1.75l0.07-0.06c-0.73,0.78-1.37,1.71-1.97,2.67
				c-0.29,0.49-0.58,0.97-0.84,1.49c-0.28,0.5-0.53,1.02-0.78,1.54c-0.5,1.04-0.95,2.1-1.39,3.18l-0.61,1.63l-0.57,1.65l-0.52,1.67
				c-0.16,0.56-0.31,1.12-0.47,1.69c-0.29,1.13-0.57,2.26-0.81,3.41c-0.13,0.57-0.23,1.15-0.34,1.72c-0.11,0.57-0.2,1.15-0.29,1.73
				l-0.14,0.87l-0.11,0.87c-0.07,0.58-0.15,1.16-0.19,1.75c-0.11,1.17-0.18,2.34-0.22,3.51l-0.02,1.76l0.05,1.76
				c0.06,1.17,0.13,2.34,0.29,3.5c0.04,0.29,0.06,0.58,0.11,0.87l0.15,0.86l0.15,0.86l0.19,0.85l0.19,0.85
				c0.06,0.29,0.15,0.56,0.23,0.84c0.16,0.56,0.31,1.12,0.52,1.67c0.37,1.1,0.82,2.17,1.32,3.21c0.27,0.51,0.52,1.03,0.82,1.52
				c0.31,0.48,0.6,0.98,0.92,1.45c0.34,0.46,0.68,0.92,1.03,1.37l1.13,1.28l-0.87,0.07c0.72-1.17,1.36-2.39,1.86-3.65
				c0.5-1.27,0.86-2.58,1.06-3.91c0.09-0.67,0.14-1.33,0.15-2c0-0.17,0-0.34,0-0.51l-0.01-0.27l0-0.14l0-0.17l0-0.09
				c0.01-0.06,0.02-0.17,0.04-0.25c0.01-0.04,0.02-0.08,0.04-0.12c0.01-0.04,0.04-0.09,0.04-0.09l0.03-0.06l0.12-0.24l0.23-0.47
				c0.3-0.63,0.65-1.27,0.99-1.9c0.36-0.62,0.7-1.25,1.08-1.85c0.73-1.23,1.54-2.42,2.4-3.56l0.66-0.85
				c0.22-0.28,0.46-0.55,0.69-0.83l0.35-0.41l0.04-0.05l0.06-0.06l0.09-0.1l0.18-0.19c0.24-0.26,0.47-0.52,0.71-0.77
				c1.03-1.05,2.1-1.99,3.25-2.87c1.14-0.88,2.38-1.63,3.67-2.28c0.64-0.33,1.31-0.6,1.97-0.88c0.68-0.24,1.35-0.49,2.04-0.66
				c1.38-0.36,2.79-0.63,4.2-0.73c0.35-0.04,0.71-0.04,1.06-0.06c0.35-0.01,0.71-0.03,1.06-0.02l2.08,0.05l4.14,0.11
				c1.38,0.04,2.78,0.08,4.14,0.09c1.32-0.04,2.68-0.32,3.89-0.94c1.22-0.6,2.3-1.49,3.21-2.53c0.45-0.53,0.87-1.08,1.24-1.67
				c0.19-0.28,0.35-0.6,0.53-0.9c0.09-0.15,0.16-0.31,0.23-0.46l0.21-0.47l0.06-0.13l0.11,0.07c0.01,0.01,0.02,0.01,0.02,0.02
				l-0.19,0.04L80.76,87.57L80.76,87.57z M80.95,87.64L80.95,87.64l-0.73,1.92l-0.19,0.04c0,0.01,0.01,0.01,0.02,0.01l0.17-0.06
				l-0.22,0.49c-0.07,0.17-0.14,0.33-0.24,0.48c-0.18,0.31-0.33,0.61-0.53,0.92c-0.37,0.6-0.8,1.17-1.25,1.71
				c-0.9,1.09-1.98,2.05-3.23,2.72c-1.25,0.68-2.63,1.07-4.06,1.17l-4.15,0.14l-4.14,0.15l-2.06,0.09
				c-0.34,0.01-0.67,0.05-1.01,0.08c-0.33,0.04-0.67,0.06-1,0.12c-1.33,0.17-2.64,0.49-3.91,0.9c-0.31,0.11-0.64,0.2-0.95,0.33
				l-0.93,0.37c-0.61,0.28-1.22,0.55-1.8,0.88l-0.44,0.24l-0.43,0.26c-0.28,0.18-0.57,0.34-0.85,0.53l-0.83,0.56l-0.8,0.61
				c-1.05,0.83-2.06,1.75-2.98,2.71c-0.24,0.25-0.47,0.51-0.71,0.76l-0.18,0.19l-0.09,0.1l-0.03,0.03l-0.04,0.05l-0.33,0.39
				c-0.22,0.26-0.45,0.52-0.66,0.78l-0.63,0.81c-0.82,1.1-1.62,2.21-2.36,3.38c-0.38,0.57-0.72,1.18-1.08,1.77
				c-0.34,0.6-0.69,1.18-1.02,1.81l-0.25,0.46l-0.13,0.23l-0.03,0.06c-0.01,0.02,0.01-0.01,0.02-0.03c0.01-0.02,0.02-0.04,0.03-0.06
				c0.01-0.04,0.02-0.09,0.02-0.12l0,0.05l-0.01,0.09l0,0.13l-0.01,0.26c0,0.18-0.01,0.37-0.02,0.55c-0.03,0.74-0.12,1.48-0.25,2.21
				c-0.28,1.46-0.74,2.86-1.34,4.19c-0.6,1.33-1.33,2.58-2.13,3.76l-0.42,0.62l-0.44-0.55l-1.13-1.4c-0.35-0.49-0.67-0.99-1.01-1.48
				c-0.32-0.51-0.6-1.04-0.89-1.55c-0.16-0.25-0.27-0.53-0.4-0.8l-0.39-0.81c-0.49-1.09-0.92-2.2-1.27-3.34
				c-0.2-0.56-0.33-1.14-0.49-1.72c-0.07-0.29-0.17-0.57-0.22-0.86l-0.19-0.87l-0.18-0.87l-0.14-0.88l-0.14-0.88
				c-0.05-0.29-0.07-0.59-0.11-0.88c-0.15-1.18-0.24-2.36-0.31-3.55l-0.06-1.78l0-1.78c0.03-1.19,0.06-2.37,0.16-3.56
				c0.03-0.59,0.1-1.18,0.15-1.77l0.08-0.89l0.11-0.88c0.07-0.59,0.14-1.18,0.24-1.76c0.09-0.59,0.17-1.18,0.28-1.76
				c0.2-1.17,0.44-2.33,0.7-3.49l0.42-1.73L28,85.94l0.51-1.71l0.56-1.7c0.4-1.12,0.82-2.24,1.3-3.34l0.36-0.82
				c0.12-0.27,0.26-0.54,0.39-0.81c0.26-0.54,0.55-1.07,0.84-1.6c0.61-1.05,1.26-2.08,2.1-3.03l0.01-0.02l0.05-0.05
				c0.57-0.54,1.18-1.18,1.84-1.79c0.32-0.32,0.64-0.58,0.96-0.87l0.24-0.21l0.12-0.11l0.06-0.05l0.01-0.01
				c0.03-0.02-0.06,0.05-0.08,0.08c-0.09,0.11-0.07,0.09-0.08,0.11c-0.03,0.06-0.01,0.01,0-0.02l0.04-0.12l0.09-0.28
				c0.47-1.6,0.89-3.31,1.32-4.98c0.43-1.68,0.85-3.36,1.32-5.05c0.12-0.42,0.24-0.85,0.37-1.28c0.07-0.22,0.13-0.43,0.22-0.67
				c0.05-0.12,0.08-0.23,0.17-0.41l0.05-0.09l0.02-0.04c0.02-0.03,0.06-0.09,0.1-0.14c0.06-0.09,0.21-0.21,0.18-0.18
				c0.08-0.05-0.16,0.1,0.18-0.12l0.03-0.02c0.09-0.04,0.18-0.09,0.29-0.12c0.21-0.07,0.47-0.1,0.72-0.08
				c0.26,0.02,0.49,0.11,0.69,0.21c0.39,0.22,0.62,0.48,0.81,0.72c0.36,0.48,0.56,0.93,0.76,1.37c0.37,0.88,0.62,1.73,0.88,2.56
				c0.26,0.83,0.5,1.66,0.77,2.43c0.14,0.39,0.28,0.76,0.44,1.1c0.15,0.33,0.34,0.64,0.45,0.73c0.02,0.03,0.03,0.02,0.02,0.02
				c-0.02-0.01-0.06-0.03-0.11-0.03c-0.02-0.01-0.05,0-0.07,0c-0.01,0-0.02,0-0.03,0.01c-0.02,0-0.04,0.01-0.06,0.02
				c-0.01,0-0.02,0.01-0.03,0.01c0,0,0.02-0.01,0.03-0.01l0.07-0.03c-0.03,0.01,0.09-0.04-0.06,0.03c-0.06,0.03-0.12,0.07-0.17,0.11
				c-0.06,0.06-0.07,0.06-0.09,0.09c-0.02,0.02-0.04,0.05-0.06,0.07c-0.02,0.03-0.03,0.05-0.05,0.07l-0.02,0.03
				c-0.01,0.03,0,0.01,0-0.01l0.03-0.1c0.02-0.07,0.04-0.17,0.07-0.26c0.04-0.19,0.08-0.39,0.12-0.59c0.15-0.82,0.28-1.67,0.41-2.53
				c0.13-0.86,0.26-1.72,0.43-2.61c0.04-0.22,0.09-0.45,0.15-0.69c0.03-0.12,0.06-0.24,0.1-0.38c0.02-0.07,0.04-0.14,0.08-0.22
				c0.03-0.08,0.07-0.17,0.14-0.31c0.04-0.07,0.08-0.14,0.22-0.3c0.06-0.06,0.14-0.13,0.21-0.18c0.1-0.06,0.14-0.08,0.13-0.07
				c0.09-0.03-0.17,0.06,0.2-0.08l0.07-0.01c0.17-0.03,0.36-0.06,0.53-0.03c0.09,0.01,0.17,0.03,0.26,0.05
				c0.09,0.02,0.17,0.05,0.22,0.08c0.12,0.06,0.26,0.14,0.35,0.21c0.08,0.07,0.17,0.14,0.25,0.22c0.06,0.07,0.12,0.13,0.18,0.2
				c0.06,0.07,0.1,0.13,0.15,0.2l0.13,0.19c0.29,0.49,0.46,0.94,0.63,1.38c0.16,0.44,0.29,0.88,0.42,1.31
				c0.5,1.72,0.85,3.44,1.26,5.09c0.1,0.41,0.21,0.82,0.32,1.17l0.04,0.13l0.03,0.08c0.01,0.02,0,0.02,0.02,0.05l0.03,0.07
				l0.03,0.07c0,0-0.02-0.03,0.01,0.03c0.01,0.03,0.03,0.06,0.04,0.09c0.03,0.07,0.05,0.14,0.06,0.22c0.07,0.32-0.02,0.69-0.14,0.89
				c-0.12,0.21-0.24,0.32-0.33,0.41c-0.2,0.17-0.35,0.25-0.49,0.32c-0.28,0.14-0.51,0.22-0.74,0.29c-0.22,0.07-0.46,0.13-0.63,0.18
				l-0.05,0.01c0,0-0.01,0,0.01,0l0.03-0.01c0.04-0.02,0.03-0.01,0.16-0.1c0.23,0.58,0.66-1.75-0.17-1.79
				c-0.24-0.1-0.22-0.07-0.28-0.09c-0.05-0.01-0.06,0-0.07-0.01l-0.01,0l0.02,0l0.03,0l0.33,0.01c0.22,0.01,0.44,0.01,0.67,0.02
				c0.89,0.05,1.78,0.16,2.66,0.32c0.88,0.18,1.75,0.41,2.59,0.72c1.68,0.62,3.28,1.51,4.67,2.64c0.18,0.13,0.34,0.29,0.51,0.44
				c0.17,0.15,0.34,0.29,0.5,0.45l0.49,0.48l0.44,0.47c0.63,0.68,1.17,1.45,1.6,2.24c0.43,0.79,0.79,1.6,1.13,2.4l0.5,1.2
				c0.15,0.36,0.34,0.7,0.57,0.97c0.24,0.28,0.52,0.49,0.85,0.67l0.27,0.13l0.29,0.13l0.58,0.26l2.34,1.04
				c1.56,0.68,3.11,1.38,4.68,2.05l0.12,0.05l0.02,0.13c0.01,0.05,0.02,0.11,0.03,0.17c0.01,0.06,0.03,0.12,0.05,0.18
				c0.04,0.12,0.08,0.24,0.13,0.36c0.05,0.12,0.11,0.23,0.18,0.34c0.07,0.11,0.14,0.21,0.23,0.31c0.04,0.05,0.08,0.09,0.13,0.14
				c0.05,0.04,0.09,0.09,0.14,0.13c0.1,0.08,0.19,0.16,0.3,0.23c0.1,0.08,0.22,0.13,0.33,0.19c0.05,0.03,0.12,0.05,0.17,0.08
				l0.18,0.07l-0.12,0.3c-0.1-0.06-0.19-0.12-0.28-0.18c-0.09-0.06-0.17-0.13-0.26-0.2c-0.16-0.15-0.32-0.31-0.45-0.49
				c-0.06-0.09-0.13-0.18-0.18-0.29c-0.06-0.1-0.09-0.21-0.13-0.32l-0.04-0.17c-0.02-0.06-0.01-0.12-0.02-0.17
				c-0.02-0.12,0-0.23,0-0.35l0,0.02v0l0-0.14l0.13,0c0.77,0.02,1.55,0.05,2.31,0.26c0.19,0.06,0.38,0.12,0.56,0.22
				c0.18,0.09,0.35,0.22,0.49,0.39c0.07,0.08,0.12,0.18,0.16,0.29c0.04,0.1,0.06,0.21,0.06,0.32c0,0.11-0.01,0.21-0.03,0.32
				C81.02,87.46,80.99,87.55,80.95,87.64L80.95,87.64z"/>
		</g>
	</g>
	<g>
		<g>
			<path class="st3" d="M34.06,99.07c0.61,2.81,0.74,0.83,0.57-0.82c-0.22-2.25,3.5-15.39,7.43-17.45c1.33-0.7,1.22,8.22,2.06,9.47
				c0.35,0.52,0.68,0.62,1.28,0.55c4.25-0.5,8.14,0.58,11.39,3.38c1.31,1.13,2.22,2.81,3.12,4.35c0.36,0.61,2.49,3.29,3.18,4.26
				c0.58,0.81,1.87,0.68,1.78,1.42c-0.04,0.33-0.11,0.74-0.22,1.19c-1.04-0.44-1.53-1.58-1.53-1.58c0.06,0.8,1.1,1.89,1.37,2.17
				c-0.61,2.09-2,4.71-4.79,5.39c-8.39,2.03-15.88,7.79-18.43,11.38c-2.04,2.87-3.56,6.01-4.83,9.3c-0.12,0.31-0.26,0.62-0.43,1.02
				C29.69,125.83,28.83,106.1,34.06,99.07z"/>
			<path class="st2" d="M34.13,99.05c0.08,0.31,0.17,0.62,0.28,0.91c0.03,0.07,0.05,0.15,0.09,0.21c0.03,0.07,0.07,0.14,0.09,0.16
				c0.01,0.01,0,0-0.02-0.01c-0.04-0.02-0.09,0.01-0.09,0.02c0,0,0,0,0,0l0-0.01c0-0.01,0.01-0.03,0.01-0.04
				c0.01-0.06,0.02-0.14,0.03-0.21c0.02-0.3,0.01-0.62-0.01-0.94c-0.02-0.32-0.06-0.62-0.09-0.96c-0.02-0.15-0.01-0.33-0.01-0.51
				c0.01-0.16,0.02-0.33,0.04-0.5c0.03-0.33,0.07-0.65,0.12-0.97c0.1-0.64,0.22-1.28,0.36-1.92c0.57-2.53,1.34-5.01,2.32-7.42
				c0.49-1.21,1.05-2.39,1.72-3.52c0.34-0.57,0.7-1.13,1.13-1.65c0.43-0.52,0.92-1.03,1.57-1.42l0.06-0.04l0.03-0.02l0.01-0.01
				c0.03-0.01-0.04,0.02,0.07-0.03l0.05-0.02c0.05-0.02,0.15-0.05,0.22-0.06c0.28-0.04,0.56,0.1,0.7,0.22
				c0.28,0.26,0.35,0.46,0.43,0.65c0.15,0.37,0.23,0.71,0.3,1.04c0.14,0.67,0.23,1.32,0.31,1.96c0.16,1.29,0.27,2.58,0.41,3.83
				c0.08,0.62,0.16,1.26,0.3,1.79c0.03,0.12,0.08,0.25,0.1,0.27l0,0c0.02,0.03-0.02-0.03-0.02-0.02l0.02,0.02l0.04,0.05l0.07,0.1
				c0.03,0.02,0.04,0.04,0.06,0.06c0.05,0.05,0.07,0.05,0.13,0.07c0.07,0.01,0.16,0.02,0.3,0.01l0.95-0.06l0.47-0.03l0.24-0.01
				c0.08,0,0.17,0,0.25,0.01l0.99,0.04c0.16,0.01,0.33,0.01,0.49,0.03l0.48,0.07l0.97,0.14l0.95,0.24l0.47,0.12
				c0.16,0.04,0.31,0.11,0.46,0.16l0.91,0.35c0.3,0.11,0.59,0.29,0.88,0.43l0.43,0.22l0.22,0.11l0.21,0.13
				c0.54,0.37,1.11,0.68,1.6,1.12l0.75,0.62c0.14,0.13,0.23,0.23,0.35,0.34l0.17,0.17l0.17,0.19c0.46,0.51,0.81,1.05,1.16,1.59
				c0.35,0.55,0.66,1.11,0.98,1.67l0.23,0.42l0.06,0.1l0.01,0.03c0,0,0.01,0.02,0,0l0.01,0.01l0.03,0.05l0.13,0.2
				c0.18,0.26,0.35,0.53,0.55,0.78l2.29,3.05l0.14,0.18c0.05,0.06,0.1,0.13,0.15,0.16c0.08,0.08,0.21,0.17,0.33,0.23
				c0.25,0.14,0.54,0.23,0.86,0.39c0.15,0.08,0.35,0.2,0.45,0.45c0.02,0.06,0.04,0.12,0.04,0.18c0,0.06,0,0.1,0,0.19l-0.04,0.24
				l-0.17,0.95l-0.06,0.32l-0.27-0.14l-0.27-0.14l-0.14-0.07l-0.12-0.09l-0.12-0.09c-0.04-0.03-0.08-0.06-0.12-0.09l-0.22-0.21
				c-0.07-0.07-0.13-0.15-0.2-0.23c-0.07-0.08-0.12-0.16-0.18-0.24c-0.06-0.08-0.11-0.17-0.16-0.25c-0.05-0.09-0.1-0.17-0.15-0.28
				l0.5-0.13c0.01,0.08,0.03,0.17,0.06,0.25c0.03,0.09,0.07,0.18,0.11,0.26c0.09,0.18,0.2,0.35,0.32,0.52
				c0.24,0.33,0.53,0.65,0.83,0.94l0.13,0.13l-0.05,0.18c-0.24,0.86-0.56,1.7-1,2.48c-0.44,0.78-1,1.52-1.71,2.1
				c-0.35,0.3-0.74,0.54-1.15,0.76c-0.21,0.1-0.42,0.19-0.63,0.27l-0.33,0.1l-0.3,0.09l-1.22,0.36c-0.4,0.13-0.79,0.27-1.18,0.41
				c-0.39,0.13-0.78,0.29-1.17,0.45c-0.39,0.16-0.78,0.31-1.16,0.49c-0.38,0.18-0.77,0.34-1.14,0.53l-1.12,0.57
				c-0.74,0.4-1.48,0.79-2.19,1.24l-0.54,0.32l-0.53,0.34c-0.35,0.23-0.71,0.45-1.05,0.7c-0.69,0.47-1.37,0.98-2.03,1.49
				c-0.32,0.27-0.65,0.53-0.97,0.8c-0.31,0.28-0.63,0.55-0.94,0.84c-0.61,0.57-1.2,1.16-1.73,1.79c-0.28,0.31-0.51,0.63-0.76,0.96
				l-0.02,0.03l-0.01,0.01c-0.02,0.03,0.02-0.03,0.01-0.02l-0.01,0.02l-0.04,0.07l-0.09,0.14l-0.17,0.27l-0.35,0.54l-0.7,1.09
				c-0.21,0.37-0.4,0.74-0.6,1.1l-0.6,1.1c-0.19,0.37-0.37,0.77-0.55,1.15l-0.54,1.15c-0.18,0.39-0.33,0.79-0.49,1.18l-0.48,1.18
				l-0.51,1.21l-0.51,1.22l-0.81-0.99c-0.5-0.61-0.97-1.24-1.37-1.91c-0.2-0.33-0.4-0.67-0.57-1.01l-0.27-0.51l-0.24-0.52
				l-0.24-0.53l-0.22-0.53c-0.15-0.35-0.28-0.71-0.4-1.08c-0.13-0.36-0.25-0.72-0.35-1.09c-0.12-0.36-0.22-0.73-0.31-1.1
				c-0.1-0.37-0.2-0.74-0.28-1.11c-0.09-0.37-0.17-0.74-0.24-1.11c-0.15-0.74-0.28-1.49-0.39-2.24l-0.15-1.13l-0.12-1.13
				c-0.06-0.75-0.12-1.51-0.15-2.26c-0.03-0.76-0.05-1.51-0.04-2.27c0-0.38,0.01-0.76,0.03-1.13c0.02-0.38,0.03-0.75,0.06-1.13
				c0.04-0.75,0.11-1.51,0.2-2.26c0.05-0.37,0.09-0.75,0.15-1.12l0.18-1.12l0.22-1.11c0.08-0.37,0.17-0.73,0.26-1.1
				c0.11-0.36,0.2-0.73,0.31-1.09c0.12-0.36,0.23-0.72,0.36-1.07c0.27-0.7,0.55-1.4,0.91-2.06c0.33-0.67,0.77-1.29,1.22-1.88
				l0.09-0.12L34.13,99.05z M34.03,99.27c-0.36,0.57-0.69,1.16-0.95,1.78c-0.3,0.67-0.54,1.37-0.75,2.07
				c-0.11,0.35-0.19,0.71-0.29,1.07c-0.08,0.36-0.16,0.72-0.23,1.08l-0.19,1.09l-0.16,1.09l-0.12,1.1c-0.04,0.37-0.06,0.74-0.09,1.1
				c-0.05,0.74-0.08,1.47-0.09,2.21c-0.01,0.37,0,0.74,0,1.11c0,0.37,0.01,0.74,0.03,1.11c0.02,0.74,0.07,1.47,0.12,2.21
				c0.05,0.73,0.13,1.47,0.22,2.2l0.15,1.09l0.18,1.09c0.13,0.72,0.27,1.44,0.43,2.15c0.08,0.36,0.17,0.71,0.26,1.06
				c0.09,0.36,0.19,0.71,0.29,1.05c0.1,0.35,0.21,0.7,0.33,1.04c0.11,0.35,0.23,0.69,0.36,1.03c0.12,0.34,0.25,0.68,0.39,1.01
				l0.21,0.5l0.23,0.49l0.23,0.49l0.25,0.47c0.16,0.32,0.35,0.62,0.53,0.92c0.37,0.6,0.79,1.15,1.24,1.68l-1.32,0.23l0.99-2.41
				c0.17-0.4,0.33-0.82,0.51-1.22l0.57-1.19c0.19-0.4,0.37-0.8,0.57-1.19l0.65-1.17c0.22-0.39,0.43-0.78,0.66-1.16l0.72-1.08
				l0.36-0.54l0.18-0.27l0.09-0.13l0.04-0.07l0.01-0.02l0.02-0.03l0.01-0.01l0.03-0.03c0.28-0.36,0.56-0.73,0.86-1.05
				c0.59-0.68,1.23-1.29,1.88-1.88c0.33-0.3,0.66-0.57,1-0.86c0.34-0.28,0.68-0.54,1.03-0.81c0.7-0.53,1.4-1.03,2.13-1.51
				c0.36-0.25,0.73-0.47,1.1-0.7l0.55-0.34l0.57-0.32c0.75-0.44,1.52-0.83,2.3-1.22l1.18-0.54c0.4-0.17,0.8-0.33,1.2-0.5
				c0.4-0.17,0.81-0.31,1.21-0.46c0.41-0.15,0.81-0.29,1.23-0.41c0.42-0.12,0.83-0.26,1.25-0.37l1.24-0.31l0.31-0.08l0.28-0.08
				c0.19-0.06,0.37-0.13,0.55-0.2c0.35-0.17,0.7-0.36,1.01-0.6c0.64-0.48,1.16-1.12,1.6-1.82c0.43-0.71,0.77-1.48,1.03-2.29
				l0.08,0.31c-0.31-0.33-0.59-0.67-0.85-1.05c-0.13-0.19-0.25-0.38-0.35-0.6c-0.05-0.11-0.1-0.22-0.14-0.34
				c-0.04-0.12-0.07-0.25-0.08-0.39l-0.15-1.54l0.65,1.41c0.03,0.07,0.07,0.15,0.11,0.22c0.04,0.08,0.09,0.15,0.14,0.22
				c0.05,0.07,0.1,0.15,0.15,0.21c0.06,0.07,0.1,0.14,0.17,0.2l0.18,0.18c0.03,0.03,0.07,0.05,0.1,0.08l0.1,0.08l0.1,0.08l0.11,0.06
				l0.22,0.12l-0.33,0.18l0.18-0.95l0.05-0.24c0,0,0-0.04,0-0.05c0-0.02-0.01-0.03-0.01-0.05c-0.02-0.06-0.1-0.14-0.23-0.2
				c-0.25-0.13-0.56-0.23-0.86-0.4c-0.15-0.09-0.29-0.17-0.44-0.32c-0.08-0.07-0.12-0.13-0.17-0.19l-0.15-0.2
				c-0.76-1.02-1.55-2.01-2.33-3.04c-0.2-0.26-0.38-0.52-0.57-0.77l-0.14-0.19l-0.03-0.05l-0.01-0.01l-0.02-0.02l-0.02-0.03
				l-0.06-0.1l-0.25-0.41c-0.33-0.54-0.66-1.09-1.01-1.61C58,96,57.61,95.49,57.2,95.07l-0.15-0.16l-0.18-0.16
				c-0.11-0.1-0.25-0.23-0.34-0.3l-0.75-0.55c-0.48-0.39-1.04-0.66-1.56-0.98l-0.2-0.12l-0.21-0.09l-0.42-0.19
				c-0.28-0.12-0.55-0.27-0.84-0.36l-0.87-0.28c-0.15-0.04-0.29-0.1-0.43-0.13l-0.45-0.09l-0.89-0.18l-0.9-0.09l-0.45-0.05
				c-0.15-0.02-0.3,0-0.45-0.01l-0.89,0c-0.07,0-0.15,0-0.22,0l-0.23,0.02l-0.47,0.04l-0.93,0.08c-0.18,0.02-0.4,0.03-0.64-0.01
				c-0.25-0.05-0.52-0.17-0.71-0.33c-0.1-0.08-0.19-0.18-0.28-0.28l-0.07-0.09l-0.04-0.05l-0.02-0.02l-0.03-0.05l-0.01-0.02
				c-0.15-0.25-0.21-0.43-0.26-0.62c-0.2-0.71-0.27-1.35-0.36-2.01c-0.16-1.3-0.27-2.58-0.4-3.84c-0.07-0.63-0.15-1.26-0.27-1.85
				c-0.06-0.29-0.13-0.59-0.22-0.81c-0.04-0.11-0.11-0.2-0.07-0.16c0.02,0.02,0.14,0.09,0.27,0.07c0.04,0,0.09-0.02,0.11-0.03
				l-0.05,0.02c0.1-0.05,0.02-0.01,0.04-0.02l-0.01,0.01l-0.02,0.01l-0.04,0.03c-0.44,0.25-0.87,0.66-1.25,1.1
				c-0.39,0.45-0.73,0.96-1.07,1.48c-0.66,1.05-1.21,2.18-1.74,3.32c-0.52,1.15-0.99,2.33-1.42,3.53c-0.44,1.19-0.83,2.41-1.18,3.63
				c-0.17,0.61-0.34,1.23-0.48,1.85c-0.07,0.31-0.13,0.62-0.19,0.93c-0.03,0.16-0.04,0.31-0.07,0.46c-0.01,0.14-0.03,0.28-0.02,0.45
				c0.03,0.63,0.05,1.29-0.03,1.96c-0.01,0.08-0.03,0.17-0.06,0.26c-0.01,0.02-0.01,0.05-0.03,0.07l-0.02,0.04
				c-0.01,0.02-0.03,0.04-0.04,0.05c-0.03,0.04-0.12,0.09-0.2,0.06c-0.06-0.02-0.1-0.06-0.11-0.08c-0.07-0.1-0.1-0.18-0.13-0.26
				c-0.03-0.08-0.05-0.16-0.07-0.24C34.12,99.78,34.07,99.53,34.03,99.27z"/>
		</g>
	</g>
</g>
<g class="st4">
	
		<radialGradient id="SVGID_2_" cx="198.5249" cy="-188.7552" r="104.0448" gradientTransform="matrix(0.2979 0 0 0.3051 -5.7957 149.8029)" gradientUnits="userSpaceOnUse">
		<stop  offset="0.3871" style="stop-color:#FFFFFF"/>
		<stop  offset="0.7955" style="stop-color:#B3B2B2"/>
		<stop  offset="1" style="stop-color:#7C797A"/>
	</radialGradient>
	<path class="st5" d="M81.01,87.77c0.71-1.8-2.01-1.92-3.38-1.94v0l0,0c-0.16,1.25,1.3,2.01,1.3,2.01
		c-1.86-0.64-2.04-2.35-2.04-2.35s-5.24-2.18-8.04-3.29c-0.98-0.39-1.54-0.95-2-1.96c-0.85-1.88-1.7-3.91-3.07-5.36
		c-3.4-3.61-7.73-5.32-12.65-5.26c-0.69,0.01,1.96-0.39,1.62-1.03c-0.82-1.54-2.04-10.37-3.69-9.89c-0.53,0.16-1.21,7.64-1.7,7.89
		c-2.63,1.34-3.07-10.39-5.69-9.02c-0.45,0.24-3.39,12.7-3.78,13.03c-1.77,1.46-2.57,2.39-3.28,3.02
		c-6.82,7.41-15.33,38.75-1.98,53.32c4.15-6.28,3.28-10.83,3.45-11.17c1.83-3.61,3.94-7.03,6.61-10.06c5-5.68,11.12-8.79,18.69-8.69
		c2.89,0.04,5.79-0.09,8.68-0.04c4.26,0.07,7.25-2.21,9.36-5.63c0.39-0.64,0.67-1.18,0.85-1.66c0,0,0,0,0,0
		C80.27,89.69,80.62,88.77,81.01,87.77z"/>
	
		<radialGradient id="SVGID_3_" cx="179.6533" cy="-139.6638" r="73.3893" gradientTransform="matrix(0.2979 0 0 0.3051 -5.7957 149.8029)" gradientUnits="userSpaceOnUse">
		<stop  offset="0.3871" style="stop-color:#FFFFFF"/>
		<stop  offset="0.7955" style="stop-color:#B3B2B2"/>
		<stop  offset="1" style="stop-color:#7C797A"/>
	</radialGradient>
	<path class="st6" d="M33.96,99.29c0.61,2.83,0.74,0.83,0.58-0.83C34.31,96.2,38.06,83,42,80.92c1.33-0.7,1.23,8.27,2.07,9.52
		c0.35,0.52,0.68,0.62,1.28,0.55c4.27-0.5,8.18,0.58,11.45,3.4c1.32,1.14,2.23,2.82,3.14,4.37c0.36,0.61,2.5,3.31,3.2,4.28
		c0.58,0.81,1.88,0.68,1.79,1.43c-0.04,0.34-0.12,0.75-0.22,1.19c-1.05-0.45-1.54-1.59-1.54-1.59c0.06,0.81,1.1,1.9,1.38,2.18
		c-0.62,2.1-2.01,4.74-4.81,5.42c-8.43,2.05-15.96,7.83-18.53,11.44c-2.05,2.88-3.58,6.05-4.85,9.35c-0.12,0.31-0.26,0.62-0.43,1.03
		C29.56,126.2,28.69,106.36,33.96,99.29z"/>
</g>
<g>
	<g>
		<path d="M77.05,99.58c3.68,0,6.63,0.71,8.75,2.37c2.02,1.59,3.42,4.18,3.42,7.81c0,8.03-6.47,11.27-11.39,11.27
			c-0.57,0-1.09-0.06-1.4-0.11l-3.57-0.99v8.58c0,4.62,0.36,4.73,5.13,5.28v1.54H63.69v-1.54c4.45-0.5,4.66-0.82,4.66-5.39v-21.83
			c0-4.89-0.57-5-4.66-5.44v-1.54H77.05z M72.85,118.01c0.62,0.33,2.02,0.71,3.78,0.71c3.47,0,7.77-1.87,7.77-8.8
			c0-6.05-3.73-8.47-8.08-8.47c-1.5,0-2.59,0.27-2.9,0.66c-0.41,0.39-0.57,1.04-0.57,2.53V118.01z"/>
		<path d="M120.4,126.59c-0.31,1.43-1.71,7.09-2.23,8.74H93v-1.54c4.82-0.38,5.18-0.88,5.18-5.39v-21.72c0-4.89-0.57-5.17-4.45-5.55
			v-1.54h15.85c4.87,0,6.89-0.06,7.51-0.11c0.05,1.38,0.26,5.5,0.47,8.41l-1.55,0.28c-0.47-1.87-0.98-3.02-1.55-4.18
			c-0.83-1.81-2.02-2.2-5.13-2.2h-4.92c-1.61,0-1.71,0.17-1.71,1.76v12.15h5.75c3.88,0,4.14-0.82,4.76-4.56h1.6v11.33h-1.6
			c-0.67-3.96-1.09-4.51-4.82-4.51h-5.7v10.94c0,3.85,1.14,4.18,3.73,4.24h4.82c3.16,0,3.68-0.5,4.82-1.92
			c0.98-1.16,2.07-3.41,2.8-5.06L120.4,126.59z"/>
		<path d="M151.32,108.22c-0.47-1.76-1.09-3.57-1.66-4.56c-0.83-1.48-1.35-1.87-4.2-1.87h-5.18v26.78c0,4.29,0.41,4.89,5.33,5.22
			v1.54h-15.07v-1.54c4.82-0.33,5.23-0.88,5.23-5.22v-26.78h-4.71c-2.85,0-3.68,0.33-4.56,1.98c-0.62,1.1-1.04,2.42-1.71,4.45h-1.55
			c0.31-3.35,0.62-6.82,0.78-9.9h1.19c0.78,1.32,1.35,1.27,2.8,1.27h20.51c1.45,0,1.86-0.22,2.64-1.27h1.24
			c0,2.58,0.21,6.54,0.47,9.73L151.32,108.22z"/>
		<path d="M182.81,126.2c-0.31,1.71-1.86,7.42-2.38,9.13h-24.08v-1.54c4.71-0.5,5.13-0.77,5.13-5.44v-21.83
			c0-4.67-0.52-4.95-4.66-5.39v-1.54h13.88v1.54c-4.14,0.44-4.71,0.66-4.71,5.39v22.38c0,3.35,0.41,4.12,3.37,4.18
			c0.05,0,3.78,0.06,4.09,0.06c2.64,0,3.42-0.33,4.61-1.71c1.29-1.43,2.38-3.63,3.16-5.66L182.81,126.2z"/>
		<path d="M203.69,135.33v-1.54c3.37-0.44,3.78-0.99,3.06-3.08c-0.67-2.14-1.71-4.89-2.8-8.36h-11.19
			c-0.83,2.47-1.61,4.62-2.33,6.87c-1.14,3.58-0.41,4.01,3.83,4.56v1.54H182.3v-1.54c3.26-0.44,4.09-0.82,5.9-5.77l10.72-28.87
			l1.66-0.33c3.26,9.4,6.84,19.8,10.1,29.31c1.66,4.78,2.12,5.22,5.8,5.66v1.54H203.69z M198.51,106.02
			c-1.66,4.73-3.42,9.73-4.97,14.08h9.68L198.51,106.02z"/>
		<path d="M253.56,101.12c-3.31,0.38-4.4,0.93-4.56,3.46c-0.05,1.76-0.16,4.07-0.16,9.18v22.05h-1.97l-22.17-28.76v13.75
			c0,4.95,0.16,7.42,0.26,9.02c0.1,2.8,1.4,3.63,5.13,3.96v1.54h-12.58v-1.54c3.21-0.27,4.45-1.1,4.66-3.79
			c0.16-1.76,0.26-4.23,0.26-9.24v-14.02c0-1.54-0.1-2.42-1.04-3.63c-0.98-1.38-2.07-1.71-4.61-1.98v-1.54h7.77l21.96,27.66v-13.47
			c0-5.12-0.1-7.48-0.26-9.13c-0.16-2.47-1.35-3.25-5.49-3.52v-1.54h12.79V101.12z"/>
		<path d="M271.64,99.58c7.3,0,11.91,1.54,15.12,4.78c2.54,2.64,4.4,6.49,4.4,11.77c0,6.43-2.49,11.66-6.47,14.85
			c-3.94,3.13-8.96,4.34-15.33,4.34h-12.12v-1.54c4.45-0.44,4.66-0.82,4.66-5.33v-21.94c0-4.73-0.62-4.95-4.66-5.39v-1.54H271.64z
			 M266.41,128.02c0,4.12,1.66,5.28,5.54,5.28c9.32,0,14.09-6.76,14.09-16.39c0-5.99-1.92-10.56-6.01-13.2
			c-2.38-1.6-5.39-2.2-8.86-2.2c-2.33,0-3.57,0.33-4.09,0.77c-0.47,0.33-0.67,0.94-0.67,3.08V128.02z"/>
	</g>
</g>
</svg>
