<?xml version="1.0" encoding="utf-8"?>
<!-- Generator: Adobe Illustrator 24.0.0, SVG Export Plug-In . SVG Version: 6.00 Build 0)  -->
<svg version="1.1" id="Layer_1" xmlns="http://www.w3.org/2000/svg" xmlns:xlink="http://www.w3.org/1999/xlink" x="0px" y="0px"
	 viewBox="0 0 300 200" style="enable-background:new 0 0 300 200;" xml:space="preserve">
<style type="text/css">
	.st0{opacity:0.6;fill:url(#SVGID_1_);}
	.st1{fill:#FFFFFF;}
	.st2{fill:#DE8758;}
	.st3{fill-rule:evenodd;clip-rule:evenodd;fill:#FFFFFF;}
	.st4{opacity:0.2;}
	.st5{fill:url(#SVGID_2_);}
	.st6{fill-rule:evenodd;clip-rule:evenodd;fill:url(#SVGID_3_);}
</style>
<radialGradient id="SVGID_1_" cx="211.1492" cy="32390.1504" r="93.815" gradientTransform="matrix(0.6031 0 0 0.0957 -44.109 -2945.2605)" gradientUnits="userSpaceOnUse">
	<stop  offset="0" style="stop-color:#7C797A"/>
	<stop  offset="0.2959" style="stop-color:#B3B2B2"/>
	<stop  offset="1" style="stop-color:#FFFFFF"/>
</radialGradient>
<path class="st0" d="M162.03,155.49c0,6.08-35.28,11.01-78.8,11.01s-78.8-4.93-78.8-11.01c0-6.08,35.28-11.01,78.8-11.01
	S162.03,149.41,162.03,155.49z"/>
<g>
	<g>
		<g>
			<path class="st1" d="M150.9,68.63c1.12-2.85-3.21-3.03-5.37-3.06v0.01l0,0c-0.25,1.97,2.07,3.18,2.07,3.18
				c-2.96-1.01-3.25-3.71-3.25-3.71s-8.35-3.45-12.79-5.19c-1.55-0.61-2.46-1.5-3.19-3.1c-1.36-2.97-2.7-6.17-4.88-8.47
				c-5.41-5.7-12.3-8.39-20.13-8.31c-1.1,0.01,3.13-0.61,2.58-1.62c-1.3-2.42-3.25-16.38-5.88-15.61
				c-0.84,0.25-1.92,12.07-2.71,12.47c-4.19,2.12-4.89-16.42-9.05-14.25c-0.72,0.37-5.39,20.06-6.02,20.58
				c-2.81,2.31-4.09,3.78-5.23,4.77c-10.84,11.7-24.39,61.19-3.15,84.2c6.6-9.91,5.21-17.1,5.49-17.64
				c2.91-5.71,6.28-11.1,10.52-15.9c7.95-8.97,17.7-13.88,29.74-13.73c4.6,0.06,9.21-0.15,13.82-0.07
				c6.78,0.12,11.54-3.5,14.89-8.89c0.63-1.01,1.07-1.87,1.36-2.62c0,0,0,0,0,0C149.73,71.67,150.28,70.21,150.9,68.63z"/>
			<path class="st2" d="M150.75,68.58c0.05-0.15,0.1-0.3,0.13-0.43c0.03-0.14,0.04-0.28,0.04-0.42c-0.01-0.14-0.03-0.27-0.08-0.4
				c-0.05-0.13-0.11-0.25-0.2-0.35c-0.35-0.43-0.93-0.66-1.5-0.82c-1.16-0.3-2.39-0.35-3.61-0.36l0.22-0.22v0.01l0,0.03
				c0,0.15-0.03,0.31,0,0.46c0.01,0.07,0.01,0.15,0.03,0.23l0.06,0.22c0.05,0.14,0.1,0.29,0.18,0.42c0.07,0.14,0.16,0.27,0.25,0.39
				c0.19,0.25,0.42,0.47,0.67,0.67c0.12,0.1,0.25,0.2,0.38,0.28c0.13,0.09,0.27,0.17,0.4,0.24l-0.2,0.48l-0.31-0.12
				c-0.1-0.04-0.21-0.07-0.31-0.13c-0.2-0.1-0.41-0.19-0.6-0.32c-0.2-0.11-0.38-0.25-0.56-0.4c-0.09-0.07-0.17-0.15-0.26-0.23
				c-0.08-0.08-0.17-0.16-0.24-0.25c-0.16-0.17-0.3-0.35-0.43-0.54c-0.13-0.19-0.25-0.39-0.35-0.6c-0.1-0.21-0.19-0.42-0.27-0.64
				c-0.04-0.11-0.07-0.22-0.1-0.34c-0.03-0.12-0.05-0.22-0.07-0.36l0.21,0.29c-2.53-0.99-5.08-1.92-7.62-2.89l-3.82-1.42l-0.95-0.35
				l-0.48-0.18l-0.5-0.2c-0.7-0.3-1.39-0.74-1.93-1.31c-0.55-0.57-0.97-1.24-1.3-1.9l-0.91-1.84c-0.61-1.22-1.24-2.41-1.94-3.52
				c-0.71-1.11-1.5-2.09-2.41-2.96l-0.75-0.7l-0.73-0.62c-0.24-0.21-0.5-0.4-0.76-0.6c-0.26-0.19-0.51-0.4-0.78-0.58
				c-1.06-0.75-2.17-1.41-3.32-1.99c-1.15-0.58-2.35-1.04-3.57-1.44c-1.22-0.38-2.48-0.66-3.74-0.88c-1.27-0.2-2.55-0.31-3.84-0.34
				c-0.32-0.01-0.64,0-0.97,0l-0.48,0h-0.19c-0.06,0-0.11,0-0.23-0.02c-0.12-0.03-0.11,0.02-0.51-0.15
				c-1.35-0.08-0.65-3.8-0.26-2.89c0.22-0.15,0.23-0.14,0.31-0.18l0.11-0.05l0.13-0.05l0.17-0.06c0.37-0.11,0.65-0.2,0.94-0.3
				c0.28-0.1,0.54-0.2,0.71-0.29c0.08-0.04,0.14-0.09,0.08-0.04c-0.03,0.03-0.1,0.08-0.2,0.26c-0.11,0.17-0.21,0.58-0.14,0.92
				c0.02,0.09,0.04,0.15,0.06,0.22l0.04,0.09c0.04,0.08,0,0-0.01-0.01l-0.06-0.12l-0.06-0.12l-0.07-0.17l-0.14-0.35l-0.1-0.28
				c-0.25-0.74-0.44-1.42-0.62-2.11c-0.71-2.71-1.3-5.38-2.08-7.92c-0.19-0.63-0.4-1.25-0.62-1.84c-0.22-0.58-0.47-1.14-0.72-1.54
				c-0.06-0.07-0.12-0.19-0.16-0.22c-0.02-0.02-0.04-0.05-0.05-0.06c0,0.01,0,0.01,0.01,0.01c0.01,0,0.07,0.06,0.12,0.07
				c0.02,0,0.07,0.03,0.12,0.04c0.05,0.02,0.11,0.03,0.16,0.03c0.1,0,0.24,0.02,0.35-0.02l0.04-0.02c0.56-0.21,0.14-0.05,0.25-0.1
				c-0.05,0.02,0,0.01,0.15-0.08c0.11-0.07,0.21-0.15,0.3-0.24c0.17-0.18,0.18-0.22,0.2-0.26c0.04-0.07,0.03-0.06,0.02-0.03
				l-0.05,0.13c-0.03,0.11-0.07,0.25-0.11,0.39c-0.07,0.29-0.14,0.6-0.2,0.92c-0.25,1.29-0.46,2.65-0.68,4
				c-0.22,1.36-0.42,2.73-0.69,4.14c-0.07,0.35-0.14,0.71-0.23,1.09c-0.05,0.19-0.09,0.38-0.15,0.59c-0.03,0.11-0.07,0.22-0.11,0.34
				c-0.05,0.13-0.09,0.26-0.19,0.46c-0.03,0.06-0.05,0.09-0.09,0.16c-0.05,0.08-0.09,0.14-0.15,0.22c-0.04,0.06-0.09,0.11-0.14,0.16
				c-0.05,0.06-0.08,0.09-0.2,0.19c-0.1,0.08-0.21,0.16-0.32,0.22l-0.15,0.07l-0.12,0.05l-0.07,0.03l-0.16,0.06
				c-0.11,0.04-0.22,0.07-0.33,0.09c-0.1,0.02-0.2,0.03-0.3,0.05c-0.2,0.03-0.41,0.02-0.62,0.01c-0.42-0.04-0.81-0.18-1.14-0.35
				c-0.31-0.17-0.58-0.38-0.79-0.57c-0.42-0.4-0.7-0.8-0.93-1.17c-0.23-0.38-0.41-0.74-0.58-1.1c-0.33-0.72-0.58-1.41-0.81-2.1
				c-0.46-1.37-0.83-2.71-1.21-4.02c-0.38-1.3-0.76-2.6-1.23-3.75c-0.23-0.56-0.5-1.11-0.74-1.44c-0.12-0.16-0.23-0.24-0.21-0.23
				c0.02,0.04,0.26,0.05,0.29,0.02c0.01-0.01,0,0,0,0l0,0c0.52-0.34,0.13-0.08,0.24-0.15c-0.08,0.06,0.13-0.09,0.21-0.19
				c0.04-0.05,0.1-0.14,0.12-0.16l0.01-0.01c0-0.01,0.01-0.02,0.01-0.02c-0.01,0.02-0.08,0.17-0.12,0.3
				c-0.1,0.27-0.21,0.58-0.31,0.89c-0.2,0.63-0.4,1.28-0.59,1.93c-0.76,2.61-1.48,5.27-2.21,7.93l-1.1,3.99
				c-0.38,1.34-0.74,2.66-1.19,4.03l-0.19,0.53l-0.11,0.29c-0.05,0.12-0.08,0.2-0.21,0.44c-0.05,0.07-0.04,0.09-0.21,0.29
				c-0.04,0.06-0.19,0.19-0.17,0.17l-0.02,0.02l-0.1,0.08l-0.2,0.16l-0.39,0.33c-0.51,0.44-1.07,0.88-1.54,1.32
				c-0.98,0.86-1.91,1.8-3.02,2.79l0.11-0.1c-1.17,1.24-2.19,2.72-3.15,4.24c-0.46,0.78-0.93,1.55-1.35,2.36
				c-0.44,0.8-0.84,1.62-1.25,2.44c-0.81,1.64-1.53,3.34-2.22,5.05l-0.98,2.59l-0.91,2.62l-0.83,2.65c-0.26,0.89-0.5,1.78-0.76,2.68
				c-0.47,1.79-0.91,3.6-1.3,5.41c-0.21,0.9-0.36,1.82-0.54,2.73c-0.18,0.91-0.33,1.83-0.47,2.75l-0.22,1.38l-0.18,1.38
				c-0.11,0.92-0.23,1.85-0.3,2.77c-0.18,1.85-0.28,3.71-0.36,5.57l-0.03,2.79l0.07,2.79c0.1,1.86,0.21,3.71,0.46,5.55
				c0.06,0.46,0.1,0.92,0.18,1.38l0.23,1.37l0.23,1.37l0.3,1.36l0.3,1.36c0.1,0.45,0.24,0.89,0.36,1.34
				c0.26,0.89,0.49,1.78,0.82,2.65c0.59,1.75,1.31,3.45,2.11,5.1c0.43,0.81,0.83,1.64,1.31,2.42c0.5,0.77,0.96,1.56,1.48,2.31
				c0.55,0.73,1.08,1.46,1.64,2.18l1.8,2.03L73.17,130c1.15-1.86,2.18-3.79,2.98-5.8c0.8-2.01,1.38-4.1,1.69-6.21
				c0.14-1.06,0.23-2.12,0.24-3.18c0-0.26,0-0.53,0-0.81l-0.01-0.42l0-0.22l0-0.27l0-0.14c0.01-0.1,0.04-0.26,0.07-0.39
				c0.02-0.07,0.04-0.13,0.06-0.2c0.02-0.06,0.06-0.14,0.06-0.14l0.05-0.09l0.19-0.38l0.37-0.75c0.48-1,1.04-2.01,1.58-3.02
				c0.57-0.98,1.11-1.98,1.72-2.94c1.17-1.95,2.46-3.84,3.84-5.66l1.05-1.35c0.35-0.45,0.73-0.88,1.1-1.31l0.55-0.65l0.07-0.08
				l0.09-0.1l0.14-0.15l0.28-0.31c0.38-0.41,0.75-0.82,1.14-1.23c1.64-1.67,3.36-3.17,5.2-4.56c1.83-1.4,3.81-2.6,5.87-3.61
				c1.02-0.53,2.09-0.95,3.15-1.39c1.08-0.38,2.16-0.78,3.27-1.05c2.21-0.58,4.46-1.01,6.73-1.16c0.56-0.07,1.13-0.07,1.7-0.09
				c0.57-0.02,1.13-0.05,1.7-0.03l3.34,0.07l6.63,0.17c2.2,0.06,4.44,0.13,6.62,0.15c2.12-0.06,4.29-0.51,6.23-1.49
				c1.95-0.96,3.67-2.37,5.13-4.02c0.72-0.84,1.39-1.72,1.98-2.66c0.31-0.44,0.57-0.96,0.85-1.43c0.15-0.24,0.26-0.49,0.37-0.74
				l0.34-0.75l0.09-0.2l0.17,0.11c0.01,0.01,0.02,0.02,0.03,0.03l-0.3,0.06L150.75,68.58L150.75,68.58z M151.06,68.69L151.06,68.69
				l-1.16,3.05l-0.3,0.06c0.01,0.01,0.02,0.02,0.03,0.02l0.27-0.09l-0.35,0.78c-0.12,0.26-0.23,0.53-0.38,0.76
				c-0.29,0.48-0.53,0.98-0.85,1.46c-0.59,0.96-1.27,1.86-1.99,2.72c-1.44,1.73-3.17,3.25-5.17,4.32c-2,1.07-4.21,1.69-6.5,1.86
				l-6.64,0.23l-6.62,0.24l-3.29,0.14c-0.54,0.01-1.08,0.07-1.61,0.13c-0.54,0.06-1.07,0.09-1.6,0.18
				c-2.13,0.26-4.22,0.78-6.26,1.44c-0.5,0.18-1.02,0.32-1.51,0.52l-1.49,0.58c-0.97,0.45-1.94,0.88-2.88,1.4l-0.7,0.38l-0.69,0.42
				c-0.45,0.28-0.92,0.54-1.36,0.85l-1.33,0.89L97.39,92c-1.69,1.32-3.29,2.78-4.77,4.3c-0.38,0.39-0.76,0.81-1.14,1.21l-0.28,0.31
				l-0.14,0.15l-0.05,0.05l-0.07,0.08l-0.53,0.62c-0.35,0.42-0.71,0.82-1.05,1.25l-1.01,1.28c-1.31,1.74-2.6,3.51-3.77,5.36
				c-0.61,0.91-1.15,1.87-1.73,2.8c-0.54,0.96-1.1,1.88-1.63,2.87l-0.4,0.74l-0.2,0.37l-0.05,0.09c-0.02,0.03,0.01-0.02,0.03-0.04
				c0.02-0.03,0.03-0.06,0.04-0.09c0.02-0.06,0.03-0.15,0.03-0.18l0,0.07l-0.01,0.15l0,0.2l-0.01,0.42
				c-0.01,0.29-0.01,0.58-0.03,0.88c-0.05,1.18-0.19,2.36-0.4,3.52c-0.45,2.31-1.19,4.54-2.15,6.65c-0.96,2.11-2.12,4.09-3.42,5.98
				l-0.68,0.99l-0.71-0.88l-1.8-2.22c-0.56-0.77-1.08-1.57-1.62-2.36c-0.51-0.8-0.95-1.65-1.43-2.47c-0.25-0.4-0.43-0.85-0.64-1.27
				l-0.62-1.28c-0.78-1.73-1.47-3.5-2.03-5.3c-0.32-0.89-0.52-1.82-0.78-2.73c-0.12-0.46-0.26-0.91-0.36-1.37l-0.3-1.39l-0.3-1.38
				l-0.23-1.4l-0.23-1.4c-0.08-0.47-0.11-0.94-0.17-1.4c-0.24-1.87-0.39-3.75-0.49-5.63l-0.09-2.83l0.01-2.83
				c0.04-1.88,0.1-3.77,0.25-5.65c0.05-0.94,0.16-1.88,0.25-2.81l0.13-1.41l0.17-1.4c0.11-0.94,0.22-1.87,0.38-2.8
				c0.15-0.93,0.27-1.87,0.45-2.79c0.32-1.86,0.71-3.7,1.12-5.55l0.67-2.75l0.74-2.73l0.81-2.72l0.9-2.69
				c0.64-1.78,1.31-3.56,2.07-5.3l0.58-1.31c0.19-0.43,0.42-0.86,0.63-1.29c0.41-0.86,0.88-1.7,1.35-2.54
				c0.98-1.66,2.02-3.3,3.36-4.81l0.02-0.02l0.08-0.08c0.92-0.86,1.89-1.87,2.94-2.84c0.52-0.51,1.03-0.92,1.54-1.38l0.38-0.34
				l0.19-0.17l0.1-0.08l0.02-0.02c0.04-0.04-0.09,0.08-0.12,0.12c-0.14,0.17-0.11,0.15-0.13,0.18c-0.05,0.09-0.01,0.01,0-0.03
				l0.07-0.19l0.14-0.44c0.76-2.54,1.43-5.25,2.12-7.9c0.69-2.67,1.37-5.34,2.1-8.02c0.19-0.67,0.38-1.34,0.59-2.03
				c0.11-0.34,0.21-0.69,0.35-1.06c0.07-0.19,0.13-0.37,0.27-0.65l0.07-0.14l0.04-0.07c0.03-0.04,0.1-0.15,0.16-0.22
				c0.1-0.14,0.33-0.33,0.29-0.29c0.13-0.08-0.25,0.16,0.29-0.19l0.06-0.03c0.15-0.07,0.29-0.14,0.47-0.19
				c0.33-0.11,0.74-0.17,1.15-0.13c0.41,0.03,0.79,0.17,1.11,0.33c0.62,0.34,0.99,0.76,1.29,1.14c0.58,0.77,0.9,1.48,1.21,2.18
				c0.59,1.39,1,2.74,1.41,4.07c0.41,1.32,0.79,2.63,1.23,3.86c0.22,0.61,0.45,1.21,0.7,1.74c0.24,0.52,0.55,1.02,0.72,1.16
				c0.04,0.04,0.05,0.03,0.03,0.03c-0.02-0.02-0.09-0.04-0.17-0.05c-0.04-0.01-0.08,0-0.11,0c-0.02,0-0.03,0-0.04,0.01
				c-0.03,0-0.06,0.01-0.09,0.02c-0.01,0.01-0.03,0.01-0.04,0.02c-0.01,0.01,0.03-0.01,0.05-0.02l0.12-0.05
				c-0.05,0.02,0.15-0.07-0.1,0.05c-0.1,0.05-0.19,0.11-0.27,0.18c-0.1,0.09-0.11,0.1-0.15,0.14c-0.03,0.04-0.07,0.07-0.1,0.12
				c-0.04,0.05-0.05,0.07-0.08,0.11l-0.03,0.05c-0.02,0.05-0.01,0.02,0-0.02l0.05-0.15c0.03-0.12,0.07-0.26,0.1-0.41
				c0.07-0.29,0.13-0.61,0.19-0.94c0.24-1.3,0.45-2.66,0.66-4.02c0.21-1.37,0.42-2.73,0.69-4.15c0.07-0.36,0.14-0.71,0.24-1.1
				c0.05-0.19,0.1-0.39,0.17-0.6c0.03-0.11,0.07-0.22,0.12-0.35c0.05-0.13,0.11-0.28,0.23-0.49c0.07-0.11,0.13-0.23,0.35-0.47
				c0.1-0.1,0.22-0.2,0.34-0.28c0.16-0.1,0.23-0.13,0.2-0.11c0.14-0.05-0.26,0.1,0.31-0.12l0.1-0.02c0.28-0.05,0.58-0.09,0.85-0.05
				c0.14,0.02,0.27,0.05,0.41,0.08c0.14,0.03,0.27,0.08,0.36,0.13c0.19,0.09,0.42,0.22,0.56,0.33c0.14,0.11,0.27,0.22,0.4,0.34
				c0.1,0.11,0.19,0.21,0.28,0.32c0.1,0.11,0.17,0.21,0.23,0.31l0.2,0.3c0.46,0.78,0.74,1.49,1.01,2.19
				c0.26,0.7,0.47,1.39,0.67,2.08c0.79,2.74,1.36,5.46,2.01,8.08c0.16,0.65,0.33,1.3,0.52,1.86l0.07,0.21l0.05,0.13
				c0.01,0.03,0.01,0.03,0.03,0.07l0.05,0.12l0.05,0.12c0,0.01-0.03-0.05,0.02,0.04c0.02,0.05,0.04,0.09,0.06,0.15
				c0.04,0.11,0.07,0.22,0.1,0.35c0.11,0.51-0.03,1.09-0.22,1.42c-0.19,0.33-0.38,0.51-0.53,0.65c-0.32,0.27-0.55,0.39-0.78,0.51
				c-0.44,0.22-0.82,0.35-1.19,0.46c-0.36,0.11-0.73,0.21-1.01,0.29l-0.07,0.02c0,0-0.01,0,0.01-0.01l0.05-0.02
				c0.06-0.03,0.05-0.01,0.26-0.15c0.37,0.92,1.06-2.78-0.26-2.85c-0.39-0.16-0.35-0.11-0.45-0.14c-0.08-0.01-0.09-0.01-0.1-0.01
				l-0.01,0l0.03,0l0.05,0l0.53,0.01c0.36,0.01,0.71,0.01,1.07,0.03c1.42,0.08,2.84,0.25,4.25,0.51c1.4,0.28,2.79,0.64,4.14,1.14
				c2.69,0.99,5.24,2.4,7.48,4.19c0.29,0.21,0.55,0.46,0.82,0.69c0.27,0.23,0.54,0.46,0.8,0.72l0.79,0.76l0.7,0.75
				c1.01,1.07,1.87,2.31,2.56,3.56c0.69,1.26,1.26,2.54,1.81,3.82l0.8,1.91c0.25,0.58,0.54,1.11,0.91,1.54
				c0.38,0.44,0.83,0.78,1.37,1.06l0.43,0.21l0.47,0.21l0.93,0.41l3.74,1.64c2.5,1.08,4.98,2.19,7.49,3.25l0.19,0.08l0.03,0.21
				c0.01,0.08,0.03,0.18,0.05,0.28c0.02,0.1,0.05,0.19,0.08,0.29c0.06,0.19,0.13,0.38,0.22,0.57c0.08,0.18,0.18,0.36,0.29,0.53
				c0.11,0.17,0.23,0.33,0.36,0.49c0.06,0.08,0.13,0.15,0.21,0.22c0.07,0.07,0.14,0.15,0.22,0.21c0.15,0.13,0.31,0.26,0.48,0.37
				c0.16,0.12,0.35,0.21,0.53,0.31c0.09,0.05,0.19,0.08,0.28,0.12l0.28,0.12l-0.2,0.48c-0.16-0.09-0.3-0.19-0.45-0.29
				c-0.14-0.1-0.28-0.21-0.41-0.33c-0.26-0.23-0.51-0.49-0.72-0.77c-0.1-0.15-0.21-0.29-0.28-0.46c-0.09-0.16-0.15-0.33-0.21-0.5
				l-0.07-0.27c-0.02-0.09-0.02-0.18-0.04-0.27c-0.03-0.18,0-0.37,0.01-0.55l0,0.03v-0.01l0-0.22l0.22,0
				c1.23,0.03,2.48,0.08,3.7,0.42c0.3,0.09,0.61,0.2,0.89,0.35c0.29,0.15,0.57,0.35,0.78,0.62c0.11,0.13,0.19,0.29,0.25,0.46
				c0.06,0.17,0.09,0.34,0.09,0.51c0,0.17-0.02,0.34-0.05,0.51C151.17,68.4,151.11,68.54,151.06,68.69L151.06,68.69z"/>
		</g>
	</g>
	<g>
		<g>
			<path class="st3" d="M76.04,86.83c0.97,4.46,1.18,1.32,0.92-1.3c-0.35-3.57,5.6-24.43,11.88-27.71
				c2.12-1.11,1.95,13.05,3.3,15.04c0.56,0.83,1.08,0.98,2.04,0.87c6.79-0.79,13.02,0.92,18.22,5.36c2.1,1.79,3.55,4.46,5,6.91
				c0.57,0.97,3.98,5.23,5.09,6.76c0.93,1.28,2.99,1.07,2.85,2.25c-0.07,0.53-0.18,1.18-0.35,1.89c-1.67-0.7-2.44-2.51-2.44-2.51
				c0.1,1.27,1.75,3.01,2.19,3.45c-0.98,3.31-3.19,7.48-7.66,8.56c-13.42,3.23-25.4,12.37-29.48,18.07
				c-3.26,4.55-5.7,9.55-7.72,14.77c-0.19,0.49-0.41,0.98-0.68,1.62C69.04,129.33,67.66,98,76.04,86.83z"/>
			<path class="st2" d="M76.15,86.81c0.13,0.49,0.27,0.98,0.44,1.45c0.04,0.12,0.09,0.23,0.14,0.34c0.04,0.11,0.11,0.22,0.15,0.26
				c0.01,0.02,0.01-0.01-0.03-0.02c-0.07-0.03-0.14,0.02-0.15,0.03c0,0-0.01,0-0.01,0.01l0.01-0.02c0.01-0.01,0.01-0.04,0.02-0.06
				c0.02-0.1,0.03-0.22,0.04-0.34c0.03-0.48,0.01-0.99-0.02-1.49c-0.03-0.51-0.09-0.98-0.15-1.52c-0.03-0.24-0.02-0.53-0.02-0.81
				c0.02-0.26,0.03-0.53,0.06-0.79c0.05-0.52,0.12-1.04,0.2-1.55c0.16-1.02,0.35-2.04,0.58-3.04c0.92-4.02,2.14-7.95,3.71-11.78
				c0.78-1.91,1.68-3.79,2.75-5.6c0.55-0.9,1.12-1.79,1.81-2.63c0.69-0.83,1.47-1.64,2.52-2.25l0.1-0.06l0.05-0.03l0.02-0.01
				c0.04-0.02-0.07,0.03,0.11-0.05l0.09-0.04c0.08-0.03,0.24-0.07,0.36-0.09c0.45-0.06,0.9,0.15,1.12,0.35
				c0.44,0.41,0.56,0.73,0.7,1.03c0.24,0.59,0.37,1.13,0.48,1.66c0.22,1.06,0.36,2.09,0.49,3.12c0.26,2.05,0.43,4.09,0.66,6.09
				c0.12,0.98,0.25,2.01,0.49,2.84c0.05,0.19,0.13,0.4,0.16,0.43l0,0c0.03,0.04-0.04-0.05-0.03-0.03L93,72.25l0.06,0.08l0.11,0.15
				c0.04,0.03,0.06,0.07,0.1,0.09c0.07,0.07,0.12,0.08,0.21,0.11c0.11,0.02,0.26,0.03,0.47,0.01l1.52-0.09l0.75-0.04l0.38-0.02
				c0.13,0,0.26,0.01,0.4,0.01l1.59,0.07c0.26,0.02,0.53,0.01,0.79,0.05l0.78,0.11l1.55,0.23l1.52,0.39l0.76,0.2
				c0.25,0.06,0.49,0.17,0.74,0.26l1.46,0.55c0.49,0.18,0.94,0.45,1.41,0.68l0.7,0.35l0.35,0.18l0.33,0.21
				c0.86,0.58,1.78,1.09,2.55,1.78l1.21,0.98c0.23,0.2,0.37,0.36,0.57,0.55l0.27,0.27l0.27,0.31c0.73,0.81,1.29,1.66,1.86,2.53
				c0.56,0.87,1.06,1.76,1.57,2.65l0.38,0.66l0.09,0.17l0.02,0.04c0,0,0.02,0.03,0,0l0.01,0.02l0.05,0.08l0.22,0.31
				c0.29,0.42,0.57,0.85,0.88,1.24l3.67,4.85l0.22,0.28c0.08,0.09,0.17,0.21,0.24,0.26c0.13,0.13,0.34,0.26,0.53,0.37
				c0.41,0.22,0.87,0.36,1.38,0.62c0.24,0.13,0.56,0.31,0.71,0.71c0.03,0.09,0.06,0.19,0.07,0.29c0,0.1,0,0.17-0.01,0.3l-0.07,0.38
				l-0.28,1.51l-0.09,0.51l-0.43-0.22l-0.44-0.22l-0.22-0.11l-0.2-0.14l-0.2-0.14c-0.06-0.05-0.13-0.09-0.19-0.15l-0.35-0.33
				c-0.12-0.11-0.21-0.24-0.32-0.36c-0.11-0.12-0.2-0.25-0.29-0.38c-0.09-0.13-0.18-0.26-0.26-0.4c-0.09-0.14-0.16-0.27-0.24-0.44
				l0.81-0.21c0.02,0.13,0.05,0.26,0.09,0.4c0.05,0.14,0.11,0.28,0.18,0.42c0.14,0.28,0.32,0.55,0.51,0.82
				c0.39,0.53,0.85,1.03,1.32,1.49l0.2,0.2l-0.08,0.29c-0.38,1.36-0.9,2.69-1.6,3.94c-0.71,1.24-1.6,2.41-2.74,3.33
				c-0.56,0.47-1.19,0.86-1.84,1.2c-0.33,0.16-0.67,0.3-1.02,0.43l-0.53,0.17l-0.49,0.15l-1.96,0.58c-0.65,0.2-1.26,0.44-1.89,0.65
				c-0.63,0.21-1.25,0.46-1.87,0.72c-0.62,0.26-1.25,0.49-1.85,0.78c-0.61,0.28-1.22,0.54-1.83,0.84l-1.8,0.9
				c-1.18,0.63-2.37,1.26-3.51,1.96l-0.86,0.52l-0.85,0.55c-0.56,0.37-1.13,0.72-1.68,1.11c-1.11,0.75-2.19,1.55-3.25,2.37
				c-0.52,0.42-1.05,0.84-1.55,1.27c-0.5,0.44-1.01,0.87-1.5,1.33c-0.97,0.91-1.92,1.84-2.77,2.84c-0.45,0.49-0.82,1.01-1.21,1.52
				l-0.04,0.05l-0.01,0.01c-0.03,0.04,0.03-0.04,0.02-0.03l-0.02,0.03l-0.07,0.11l-0.14,0.22l-0.28,0.43l-0.56,0.86l-1.12,1.73
				c-0.34,0.58-0.64,1.17-0.96,1.75l-0.96,1.74c-0.31,0.59-0.58,1.22-0.88,1.82l-0.87,1.83c-0.28,0.61-0.52,1.25-0.79,1.87
				l-0.78,1.88l-0.81,1.92l-0.82,1.94l-1.3-1.57c-0.8-0.97-1.55-1.97-2.19-3.03c-0.32-0.53-0.64-1.06-0.91-1.61l-0.43-0.82
				l-0.39-0.83l-0.38-0.84l-0.34-0.85c-0.24-0.56-0.45-1.13-0.65-1.71c-0.21-0.57-0.39-1.15-0.57-1.73
				c-0.19-0.58-0.35-1.16-0.5-1.75c-0.16-0.58-0.31-1.17-0.44-1.76c-0.14-0.59-0.28-1.17-0.39-1.77c-0.25-1.18-0.44-2.37-0.62-3.56
				l-0.23-1.79L70,117.89c-0.1-1.2-0.19-2.39-0.24-3.59c-0.05-1.2-0.08-2.4-0.06-3.6c0-0.6,0.01-1.2,0.04-1.8
				c0.03-0.6,0.04-1.2,0.09-1.8c0.07-1.2,0.18-2.39,0.32-3.58c0.08-0.59,0.15-1.19,0.23-1.78l0.29-1.77l0.35-1.76
				c0.14-0.58,0.28-1.17,0.42-1.75c0.17-0.58,0.33-1.15,0.5-1.73c0.2-0.57,0.37-1.14,0.58-1.7c0.43-1.12,0.88-2.23,1.45-3.28
				c0.53-1.07,1.23-2.05,1.95-2.99l0.15-0.19L76.15,86.81z M75.98,87.16c-0.57,0.91-1.1,1.84-1.51,2.83
				c-0.48,1.06-0.86,2.17-1.2,3.29c-0.17,0.56-0.3,1.13-0.46,1.69c-0.13,0.57-0.25,1.14-0.38,1.71l-0.31,1.73l-0.26,1.74l-0.2,1.75
				c-0.06,0.58-0.09,1.17-0.14,1.75c-0.07,1.17-0.13,2.34-0.14,3.51c-0.02,0.58,0,1.17,0,1.76c0,0.59,0.02,1.17,0.04,1.76
				c0.04,1.17,0.11,2.34,0.2,3.5c0.09,1.17,0.22,2.33,0.35,3.49l0.24,1.73l0.29,1.73c0.2,1.15,0.42,2.29,0.69,3.42
				c0.12,0.57,0.27,1.13,0.42,1.69c0.14,0.56,0.3,1.12,0.47,1.67c0.16,0.56,0.33,1.11,0.52,1.65c0.18,0.55,0.37,1.09,0.58,1.63
				c0.2,0.54,0.4,1.08,0.63,1.6l0.33,0.79l0.37,0.77l0.37,0.77l0.41,0.75c0.26,0.5,0.56,0.98,0.85,1.46
				c0.59,0.96,1.27,1.83,1.98,2.67L78,140.36l1.59-3.83c0.27-0.64,0.52-1.29,0.82-1.93l0.91-1.9c0.31-0.63,0.59-1.27,0.92-1.89
				l1.04-1.86c0.35-0.61,0.7-1.24,1.06-1.84l1.15-1.71l0.57-0.85l0.29-0.43l0.14-0.21l0.07-0.11l0.02-0.03l0.04-0.05l0.01-0.01
				l0.04-0.05c0.45-0.57,0.89-1.16,1.38-1.67c0.94-1.08,1.97-2.04,3.01-2.99c0.52-0.47,1.06-0.91,1.59-1.36
				c0.54-0.44,1.1-0.86,1.64-1.29c1.11-0.83,2.24-1.64,3.41-2.4c0.57-0.4,1.17-0.75,1.76-1.11l0.89-0.54l0.9-0.51
				c1.2-0.7,2.43-1.32,3.67-1.93l1.89-0.86c0.63-0.28,1.28-0.53,1.92-0.79c0.63-0.27,1.29-0.49,1.94-0.73
				c0.65-0.23,1.3-0.47,1.97-0.65c0.67-0.19,1.33-0.41,2-0.58l1.98-0.48l0.49-0.13l0.45-0.12c0.3-0.09,0.59-0.21,0.88-0.33
				c0.57-0.26,1.12-0.57,1.62-0.96c1.02-0.76,1.86-1.78,2.56-2.89c0.69-1.12,1.23-2.35,1.64-3.63l0.12,0.49
				c-0.49-0.52-0.95-1.06-1.36-1.66c-0.21-0.3-0.4-0.61-0.57-0.95c-0.08-0.17-0.16-0.35-0.22-0.54c-0.06-0.19-0.1-0.4-0.13-0.61
				l-0.24-2.45l1.04,2.24c0.05,0.1,0.11,0.24,0.18,0.36c0.07,0.12,0.14,0.24,0.22,0.35c0.08,0.12,0.15,0.23,0.24,0.34
				c0.09,0.1,0.17,0.22,0.27,0.32l0.29,0.29c0.05,0.05,0.11,0.08,0.16,0.13l0.16,0.12l0.16,0.12l0.18,0.1l0.35,0.19l-0.52,0.29
				l0.29-1.5l0.07-0.38c-0.01,0,0-0.06,0-0.09c0-0.03-0.02-0.05-0.02-0.08c-0.03-0.09-0.17-0.21-0.36-0.32
				c-0.4-0.2-0.9-0.37-1.38-0.63c-0.24-0.14-0.47-0.28-0.7-0.51c-0.13-0.11-0.19-0.2-0.27-0.3l-0.24-0.32
				c-1.21-1.62-2.48-3.19-3.73-4.83c-0.32-0.41-0.61-0.82-0.91-1.23l-0.22-0.31l-0.06-0.08l-0.01-0.02l-0.02-0.04l-0.02-0.04
				l-0.1-0.16l-0.4-0.65c-0.53-0.87-1.05-1.73-1.62-2.55c-0.57-0.81-1.18-1.62-1.85-2.29l-0.24-0.26l-0.28-0.25
				c-0.18-0.16-0.39-0.36-0.55-0.48l-1.19-0.87c-0.77-0.62-1.66-1.05-2.49-1.56l-0.32-0.18l-0.34-0.15l-0.67-0.3
				c-0.45-0.19-0.88-0.42-1.34-0.57l-1.39-0.45c-0.23-0.07-0.46-0.16-0.7-0.21l-0.71-0.15l-1.42-0.29l-1.45-0.14l-0.72-0.07
				c-0.24-0.03-0.48-0.01-0.72-0.01l-1.42,0c-0.12,0-0.24-0.01-0.36,0l-0.38,0.03l-0.75,0.06l-1.49,0.13
				c-0.29,0.03-0.64,0.04-1.03-0.02c-0.39-0.08-0.83-0.26-1.14-0.53c-0.16-0.12-0.31-0.29-0.44-0.44l-0.12-0.15l-0.06-0.08
				l-0.03-0.04l-0.05-0.07l-0.02-0.04c-0.24-0.4-0.33-0.68-0.42-0.98c-0.32-1.13-0.43-2.15-0.57-3.19c-0.26-2.06-0.43-4.09-0.65-6.1
				c-0.11-1-0.24-2-0.43-2.94c-0.09-0.46-0.21-0.93-0.35-1.28c-0.06-0.17-0.17-0.31-0.11-0.25c0.03,0.03,0.22,0.14,0.42,0.11
				c0.06,0,0.15-0.03,0.17-0.05l-0.09,0.04c0.16-0.07,0.03-0.01,0.07-0.03l-0.02,0.01l-0.03,0.02l-0.07,0.04
				c-0.71,0.4-1.39,1.04-2,1.75c-0.62,0.71-1.17,1.52-1.7,2.34c-1.05,1.66-1.94,3.46-2.78,5.28c-0.84,1.82-1.58,3.7-2.27,5.6
				c-0.7,1.9-1.33,3.82-1.88,5.77c-0.28,0.97-0.54,1.95-0.77,2.93c-0.11,0.49-0.21,0.98-0.3,1.47c-0.05,0.25-0.07,0.49-0.11,0.73
				c-0.02,0.23-0.05,0.45-0.04,0.72c0.05,1,0.09,2.06-0.05,3.11c-0.02,0.13-0.05,0.27-0.09,0.42c-0.01,0.04-0.02,0.07-0.05,0.12
				l-0.03,0.06c-0.02,0.03-0.04,0.06-0.06,0.08c-0.05,0.06-0.19,0.14-0.32,0.09c-0.09-0.03-0.16-0.09-0.18-0.13
				c-0.12-0.16-0.16-0.28-0.2-0.41c-0.05-0.13-0.08-0.26-0.11-0.38C76.13,87.97,76.05,87.56,75.98,87.16z"/>
		</g>
	</g>
</g>
<g class="st4">
	
		<radialGradient id="SVGID_2_" cx="237.2843" cy="-129.9211" r="104.0448" gradientTransform="matrix(0.4766 0 0 0.4845 -6.2041 138.8904)" gradientUnits="userSpaceOnUse">
		<stop  offset="0.3871" style="stop-color:#FFFFFF"/>
		<stop  offset="0.7955" style="stop-color:#B3B2B2"/>
		<stop  offset="1" style="stop-color:#7C797A"/>
	</radialGradient>
	<path class="st5" d="M151.14,68.89c1.13-2.86-3.22-3.04-5.4-3.07v0.01l0,0c-0.25,1.98,2.08,3.2,2.08,3.2
		c-2.98-1.01-3.26-3.73-3.26-3.73s-8.39-3.47-12.86-5.22c-1.56-0.61-2.47-1.51-3.2-3.11c-1.37-2.98-2.72-6.21-4.91-8.52
		c-5.44-5.73-12.36-8.44-20.24-8.35c-1.11,0.01,3.14-0.62,2.6-1.63c-1.31-2.44-3.27-16.47-5.91-15.7
		C99.19,23,98.1,34.89,97.31,35.29c-4.21,2.13-4.92-16.5-9.1-14.33c-0.72,0.38-5.42,20.17-6.06,20.69c-2.83,2.32-4.11,3.8-5.25,4.8
		c-10.9,11.77-24.53,61.53-3.17,84.66c6.64-9.97,5.24-17.19,5.52-17.73c2.93-5.74,6.31-11.16,10.58-15.98
		c8-9.02,17.79-13.96,29.9-13.8c4.63,0.06,9.26-0.15,13.89-0.07c6.82,0.12,11.6-3.52,14.97-8.94c0.63-1.01,1.08-1.88,1.36-2.64
		c0,0,0,0,0,0C149.96,71.95,150.52,70.48,151.14,68.89z"/>
	
		<radialGradient id="SVGID_3_" cx="218.4127" cy="-80.8297" r="73.3893" gradientTransform="matrix(0.4766 0 0 0.4845 -6.2041 138.8904)" gradientUnits="userSpaceOnUse">
		<stop  offset="0.3871" style="stop-color:#FFFFFF"/>
		<stop  offset="0.7955" style="stop-color:#B3B2B2"/>
		<stop  offset="1" style="stop-color:#7C797A"/>
	</radialGradient>
	<path class="st6" d="M75.87,87.19c0.98,4.49,1.19,1.32,0.92-1.31c-0.36-3.59,5.63-24.56,11.95-27.86
		c2.13-1.11,1.96,13.12,3.32,15.12c0.56,0.83,1.09,0.98,2.05,0.87c6.83-0.8,13.09,0.92,18.32,5.39c2.11,1.8,3.57,4.48,5.02,6.94
		c0.57,0.97,4,5.25,5.12,6.8c0.93,1.29,3.01,1.08,2.86,2.26c-0.07,0.53-0.18,1.19-0.36,1.9c-1.68-0.71-2.46-2.52-2.46-2.52
		c0.1,1.28,1.76,3.02,2.21,3.47c-0.99,3.33-3.21,7.53-7.7,8.61c-13.49,3.25-25.54,12.43-29.64,18.17c-3.28,4.58-5.73,9.6-7.77,14.85
		c-0.19,0.5-0.41,0.98-0.69,1.63C68.84,129.92,67.45,98.41,75.87,87.19z"/>
</g>
<g>
	<g>
		<path d="M105.71,121.82c2.99,0,5.39,0.58,7.11,1.92c1.64,1.3,2.78,3.4,2.78,6.35c0,6.53-5.26,9.17-9.26,9.17
			c-0.46,0-0.88-0.04-1.14-0.09l-2.9-0.8v6.97c0,3.76,0.29,3.84,4.17,4.29v1.25H94.85v-1.25c3.62-0.4,3.79-0.67,3.79-4.38V127.5
			c0-3.98-0.46-4.07-3.79-4.43v-1.25H105.71z M102.3,136.8c0.5,0.27,1.64,0.58,3.07,0.58c2.82,0,6.31-1.52,6.31-7.15
			c0-4.92-3.03-6.88-6.57-6.88c-1.22,0-2.1,0.22-2.36,0.54c-0.34,0.31-0.46,0.85-0.46,2.06V136.8z"/>
		<path d="M140.94,143.78c-0.25,1.16-1.39,5.77-1.81,7.11h-20.46v-1.25c3.92-0.31,4.21-0.71,4.21-4.38v-17.66
			c0-3.98-0.46-4.2-3.62-4.52v-1.25h12.88c3.96,0,5.6-0.04,6.1-0.09c0.04,1.12,0.21,4.47,0.38,6.84l-1.26,0.22
			c-0.38-1.52-0.8-2.46-1.26-3.4c-0.67-1.48-1.64-1.79-4.17-1.79h-4c-1.31,0-1.39,0.13-1.39,1.43v9.88h4.67
			c3.16,0,3.37-0.67,3.87-3.71h1.31v9.21h-1.31c-0.55-3.22-0.88-3.67-3.92-3.67h-4.63v8.9c0,3.13,0.93,3.4,3.03,3.44h3.92
			c2.57,0,2.99-0.4,3.92-1.57c0.8-0.94,1.68-2.77,2.27-4.11L140.94,143.78z"/>
		<path d="M166.08,128.84c-0.38-1.43-0.88-2.91-1.35-3.71c-0.67-1.21-1.09-1.52-3.41-1.52h-4.21v21.77c0,3.49,0.34,3.98,4.34,4.25
			v1.25H149.2v-1.25c3.92-0.27,4.25-0.71,4.25-4.25v-21.77h-3.83c-2.32,0-2.99,0.27-3.71,1.61c-0.5,0.89-0.84,1.97-1.39,3.62h-1.26
			c0.25-2.73,0.5-5.54,0.63-8.05h0.97c0.63,1.07,1.09,1.03,2.27,1.03h16.67c1.18,0,1.52-0.18,2.15-1.03h1.01
			c0,2.1,0.17,5.32,0.38,7.91L166.08,128.84z"/>
		<path d="M191.67,143.46c-0.25,1.39-1.52,6.04-1.94,7.42h-19.58v-1.25c3.83-0.4,4.17-0.63,4.17-4.43v-17.75
			c0-3.8-0.42-4.02-3.79-4.38v-1.25h11.28v1.25c-3.37,0.36-3.83,0.54-3.83,4.38v18.2c0,2.73,0.34,3.35,2.74,3.4
			c0.04,0,3.07,0.04,3.33,0.04c2.15,0,2.78-0.27,3.75-1.39c1.05-1.16,1.94-2.95,2.57-4.61L191.67,143.46z"/>
		<path d="M208.64,150.88v-1.25c2.74-0.36,3.07-0.8,2.48-2.5c-0.55-1.74-1.39-3.98-2.27-6.79h-9.09c-0.67,2.01-1.31,3.75-1.89,5.59
			c-0.93,2.91-0.34,3.26,3.12,3.71v1.25h-9.72v-1.25c2.65-0.36,3.33-0.67,4.8-4.69l8.71-23.47l1.35-0.27
			c2.65,7.65,5.56,16.1,8.21,23.83c1.35,3.89,1.73,4.25,4.71,4.6v1.25H208.64z M204.43,127.05c-1.35,3.84-2.78,7.91-4.04,11.45h7.87
			L204.43,127.05z"/>
		<path d="M249.18,123.08c-2.69,0.31-3.58,0.76-3.7,2.82c-0.04,1.43-0.13,3.31-0.13,7.47v17.93h-1.6l-18.02-23.38v11.18
			c0,4.02,0.13,6.04,0.21,7.33c0.08,2.28,1.14,2.95,4.17,3.22v1.25h-10.23v-1.25c2.61-0.22,3.62-0.89,3.79-3.08
			c0.13-1.43,0.21-3.44,0.21-7.51v-11.4c0-1.25-0.08-1.97-0.84-2.95c-0.8-1.12-1.68-1.39-3.75-1.61v-1.25h6.31l17.85,22.49v-10.95
			c0-4.16-0.08-6.08-0.21-7.42c-0.13-2.01-1.09-2.64-4.46-2.86v-1.25h10.4V123.08z"/>
		<path d="M263.87,121.82c5.94,0,9.68,1.25,12.29,3.89c2.06,2.15,3.58,5.28,3.58,9.57c0,5.23-2.02,9.48-5.26,12.07
			c-3.2,2.55-7.28,3.53-12.46,3.53h-9.85v-1.25c3.62-0.36,3.79-0.67,3.79-4.34v-17.84c0-3.85-0.51-4.02-3.79-4.38v-1.25H263.87z
			 M259.62,144.94c0,3.35,1.35,4.29,4.5,4.29c7.58,0,11.45-5.5,11.45-13.32c0-4.87-1.56-8.58-4.88-10.73
			c-1.94-1.3-4.38-1.79-7.2-1.79c-1.89,0-2.9,0.27-3.33,0.62c-0.38,0.27-0.55,0.76-0.55,2.5V144.94z"/>
	</g>
</g>
</svg>
